<?xml version="1.0" encoding="utf-8"?>
<!-- Generator: Adobe Illustrator 27.5.0, SVG Export Plug-In . SVG Version: 6.00 Build 0)  -->
<svg version="1.1" id="Calque_1" xmlns="http://www.w3.org/2000/svg" xmlns:xlink="http://www.w3.org/1999/xlink" x="0px" y="0px"
	 viewBox="0 0 300 100" style="enable-background:new 0 0 300 100;" xml:space="preserve">
<style type="text/css">
	.st0{fill:none;}
	.st1{fill:#EC6063;}
</style>
<g>
	<g>
		<path class="st0" d="M85.03,19.89c-0.33-0.14-0.51-0.28-0.69-0.28c-2.54-0.02-5.08-0.03-7.61,0.01c-0.36,0.01-0.79,0.25-1.06,0.52
			c-2.01,1.98-4.03,3.97-5.98,6.02c-8.71,9.12-17.4,18.26-26.11,27.39c-0.17,0.17-0.54,0.33-0.72,0.25c-0.17-0.07-0.3-0.45-0.3-0.7
			c0-0.45,0.15-0.89,0.15-1.34c0.01-10.3,0-20.59,0.02-30.89c0-0.97-0.43-1.31-1.35-1.28c-1.43,0.03-2.87-0.01-4.3,0.01
			c-2.59,0.03-2.58-0.5-2.58,2.59c0,16.9,0,33.8,0,50.7c0,2.13,0.05,4.27,0.04,6.4c-0.01,0.76,0.2,1.15,1.03,1.13
			c2.01-0.03,4.01-0.03,6.02-0.01c0.87,0.01,1.14-0.39,1.14-1.2c-0.02-4.31,0.02-8.61-0.05-12.92c-0.02-1.12,0.3-1.91,1.09-2.7
			c3.03-3.05,6.03-6.13,8.96-9.28c1.19-1.28,1.1-1.37,2.28,0c3.41,3.93,6.81,7.87,10.21,11.81c3.78,4.37,7.56,8.74,11.32,13.12
			c0.72,0.84,1.53,1.25,2.67,1.2c1.72-0.08,3.44-0.02,5.16-0.02c0.71,0,1.42,0,2.13,0c0.04-0.11,0.07-0.23,0.11-0.34
			C77.55,69.03,68.5,58.01,59.47,47.01C68.02,37.94,76.48,28.96,85.03,19.89z"/>
		<path class="st1" d="M85.03,19.89c-8.55,9.07-17.01,18.05-25.56,27.12c9.03,11,18.08,22.03,27.14,33.05
			c-0.04,0.11-0.07,0.23-0.11,0.34c-0.71,0-1.42,0-2.13,0c-1.72,0-3.44-0.05-5.16,0.02c-1.13,0.05-1.95-0.36-2.67-1.2
			C72.78,74.84,69,70.47,65.22,66.1c-3.4-3.94-6.81-7.87-10.21-11.81c-1.18-1.37-1.09-1.28-2.28,0c-2.93,3.15-5.93,6.23-8.96,9.28
			c-0.79,0.79-1.11,1.59-1.09,2.7c0.07,4.31,0.03,8.61,0.05,12.92c0,0.81-0.27,1.22-1.14,1.2c-2.01-0.03-4.01-0.03-6.02,0.01
			c-0.84,0.01-1.04-0.38-1.03-1.13c0.02-2.13-0.04-4.27-0.04-6.4c0-16.9-0.01-33.8,0-50.7c0-3.09-0.01-2.56,2.58-2.59
			c1.43-0.02,2.87,0.02,4.3-0.01c0.92-0.02,1.35,0.31,1.35,1.28c-0.02,10.3-0.01,20.59-0.02,30.89c0,0.45-0.15,0.89-0.15,1.34
			c0,0.25,0.13,0.62,0.3,0.7c0.18,0.08,0.55-0.08,0.72-0.25c8.71-9.12,17.4-18.27,26.11-27.39c1.95-2.04,3.97-4.03,5.98-6.02
			c0.27-0.27,0.7-0.51,1.06-0.52c2.54-0.04,5.08-0.02,7.61-0.01C84.52,19.61,84.69,19.75,85.03,19.89z"/>
	</g>
	<g>
		<path class="st0" d="M143.79,67.78c1.52-0.75,1.09-1.81,0.99-2.63c-0.61-5.11-0.41-10.2,0.23-15.28c0.17-1.34-0.15-2.03-1.26-2.66
			c-6.53-3.77-13.03-7.59-19.55-11.39c-3.52-2.05-7.06-4.08-10.56-6.16c-0.96-0.57-1.53-0.49-1.98,0.59
			c-0.36,0.86-0.86,1.67-1.32,2.48c-2.79,4.89-5.59,9.78-8.4,14.66c-0.69,1.2-1.08,2.42-1.06,3.83c0.07,5.15,0.1,10.3,0.11,15.45
			c0,1.06,0.42,1.76,1.33,2.28c3.07,1.77,6.12,3.58,9.18,5.38c2.99,1.75,5.97,3.53,8.98,5.25c2.39,1.37,3.55,0.7,3.56-1.98
			c0-5.07-0.01-10.14,0.01-15.21c0-0.55,0.05-1.18,0.31-1.65c2.82-5.11,5.69-10.2,8.53-15.29c0.52-0.93,1.16-1.13,2.1-0.56
			c2.41,1.45,4.81,2.93,7.3,4.22c1.21,0.63,1.57,1.41,1.56,2.71c-0.06,4.78-0.04,9.57-0.04,14.35
			C143.79,66.61,143.79,67.04,143.79,67.78z M131.45,75.12c1.43-0.89,2.58-1.64,3.77-2.34c0.75-0.44,1.06-1.04,1.05-1.91
			c-0.03-3.07,0-6.13,0-9.2c0-0.3-0.07-0.6-0.13-1.04c-1.35,0.76-2.53,1.48-3.77,2.08c-0.78,0.38-1.05,0.88-1.04,1.72
			c0.04,3.11,0.01,6.22,0.02,9.32C131.35,74.11,131.4,74.46,131.45,75.12z"/>
		<path class="st1" d="M143.79,67.78c0-0.74,0-1.17,0-1.6c0.01-4.78-0.02-9.57,0.04-14.35c0.02-1.29-0.34-2.08-1.56-2.71
			c-2.49-1.29-4.89-2.78-7.3-4.22c-0.94-0.57-1.58-0.37-2.1,0.56c-2.84,5.1-5.71,10.18-8.53,15.29c-0.26,0.47-0.31,1.09-0.31,1.65
			c-0.02,5.07-0.01,10.14-0.01,15.21c0,2.67-1.16,3.34-3.56,1.98c-3.01-1.72-5.99-3.49-8.98-5.25c-3.06-1.79-6.11-3.6-9.18-5.38
			c-0.91-0.52-1.33-1.22-1.33-2.28c-0.01-5.15-0.04-10.3-0.11-15.45c-0.02-1.4,0.37-2.63,1.06-3.83c2.82-4.88,5.61-9.77,8.4-14.66
			c0.47-0.82,0.96-1.62,1.32-2.48c0.45-1.08,1.02-1.16,1.98-0.59c3.5,2.08,7.04,4.11,10.56,6.16c6.51,3.8,13.02,7.62,19.55,11.39
			c1.11,0.64,1.43,1.33,1.26,2.66c-0.63,5.07-0.83,10.17-0.23,15.28C144.88,65.98,145.31,67.03,143.79,67.78z"/>
		<path class="st1" d="M131.45,75.12c-0.05-0.66-0.1-1.01-0.1-1.36c-0.01-3.11,0.02-6.22-0.02-9.32c-0.01-0.84,0.26-1.35,1.04-1.72
			c1.24-0.6,2.42-1.33,3.77-2.08c0.06,0.44,0.13,0.74,0.13,1.04c0,3.07-0.03,6.13,0,9.2c0.01,0.88-0.3,1.47-1.05,1.91
			C134.04,73.48,132.88,74.23,131.45,75.12z"/>
	</g>
	<g>
		<path class="st0" d="M167.64,65.89c-0.9,1.56-1.78,3.05-2.62,4.57c-0.73,1.32-0.61,1.54,0.7,2.27c4.15,2.31,8.58,3.61,13.31,4
			c5.01,0.42,9.88,0.04,14.62-1.76c5.65-2.15,8.32-5.96,8.28-12c-0.03-4.87-2.4-8.44-6.99-9.9c-3.24-1.03-6.61-1.6-9.9-2.48
			c-2.89-0.77-5.87-1.41-8.58-2.61c-4.61-2.04-3.45-6.88-0.59-8.85c2.58-1.77,5.53-2.1,8.48-2.19c4.22-0.13,8.2,0.99,11.93,2.97
			c0.56,0.29,1.05,0.69,1.49-0.18c0.51-1.02,1.09-2,1.64-3c1.41-2.55,1.27-2.77-1.46-3.83c-5.05-1.96-10.27-2.64-15.65-2.42
			c-3.93,0.16-7.61,1.04-10.98,3.17c-4.15,2.62-6.05,6.43-5.73,11.27c0.3,4.59,2.74,7.88,6.98,9.49c2.86,1.08,5.94,1.61,8.92,2.38
			c3.21,0.83,6.48,1.5,9.63,2.55c2.06,0.69,3.32,2.4,3.22,4.72c-0.09,2.24-1.35,3.73-3.3,4.78c-3.47,1.86-7.18,1.62-10.85,1.26
			C175.77,69.66,171.62,68.22,167.64,65.89z"/>
		<path class="st1" d="M167.64,65.89c3.98,2.32,8.13,3.76,12.53,4.2c3.67,0.36,7.39,0.6,10.85-1.26c1.95-1.05,3.21-2.54,3.3-4.78
			c0.1-2.32-1.16-4.04-3.22-4.72c-3.14-1.05-6.41-1.71-9.63-2.55c-2.98-0.77-6.05-1.3-8.92-2.38c-4.24-1.6-6.68-4.89-6.98-9.49
			c-0.32-4.84,1.58-8.65,5.73-11.27c3.36-2.12,7.04-3.01,10.98-3.17c5.39-0.22,10.6,0.46,15.65,2.42c2.74,1.06,2.88,1.29,1.46,3.83
			c-0.55,1-1.13,1.98-1.64,3c-0.44,0.87-0.93,0.47-1.49,0.18c-3.73-1.98-7.71-3.1-11.93-2.97c-2.95,0.09-5.91,0.42-8.48,2.19
			c-2.87,1.97-4.03,6.81,0.59,8.85c2.72,1.2,5.69,1.83,8.58,2.61c3.29,0.88,6.67,1.45,9.9,2.48c4.59,1.47,6.95,5.03,6.99,9.9
			c0.04,6.04-2.62,9.85-8.28,12c-4.74,1.8-9.61,2.18-14.62,1.76c-4.73-0.4-9.16-1.7-13.31-4c-1.31-0.73-1.43-0.95-0.7-2.27
			C165.86,68.95,166.74,67.45,167.64,65.89z"/>
	</g>
	<g>
		<path class="st1" d="M253.46,70.61c-0.27,0.21-0.6,0.38-0.81,0.64c-2.64,3.21-6.21,4.69-10.16,5.32
			c-4.15,0.66-8.3,0.45-12.24-1.16c-4.13-1.7-7.29-4.52-8.13-9.07c-1.28-6.95,1.34-12.39,8.58-14.75c3.58-1.16,7.28-1.25,10.96-1.41
			c3.41-0.15,6.84-0.03,10.26-0.04c0.28,0,0.56-0.05,0.82-0.08c1.01-6.17-1.89-11.78-9.32-12.62c-5.9-0.66-11.39,0.58-16.43,3.75
			c-0.6,0.38-0.92,0.33-1.25-0.29c-0.68-1.3-1.39-2.59-2.09-3.88c-0.42-0.77-0.32-1.32,0.47-1.84c4.49-2.97,9.38-4.66,14.79-4.65
			c3.44,0.01,6.89-0.26,10.31,0.67c6.21,1.68,10.7,6.66,11.36,13.06c0.21,2.01-0.01,4.07-0.01,6.1c-0.01,7.8-0.01,15.6,0,23.4
			c0,0.36-0.02,0.77,0.13,1.09c0.51,1.15,0.11,1.56-1.07,1.57c-1.5,0.02-3.01,0.1-4.51,0.19c-1.02,0.06-1.38-0.4-1.35-1.38
			c0.04-1.49,0.01-2.98,0.01-4.47C253.69,70.71,253.57,70.66,253.46,70.61z M246.13,55.79c0,0.02,0,0.04,0,0.06
			c-1.83,0-3.67-0.08-5.49,0.02c-2.63,0.14-5.26,0.26-7.69,1.55c-5.11,2.71-3.79,9.64-0.17,11.37c1.69,0.81,3.54,1.48,5.38,1.75
			c3.5,0.52,7.01,0.34,10.14-1.64c2.55-1.62,4.61-3.71,5.05-6.84c0.24-1.68,0.03-3.42,0.06-5.14c0.02-0.85-0.34-1.15-1.17-1.14
			C250.2,55.82,248.17,55.79,246.13,55.79z"/>
	</g>
</g>
</svg>
